<?xml version="1.0" standalone="no"?><!-- Generator: Gravit.io --><svg xmlns="http://www.w3.org/2000/svg" xmlns:xlink="http://www.w3.org/1999/xlink" style="isolation:isolate" viewBox="588 192 22 22" width="22" height="22"><g id="Group"><rect x="588" y="192" width="22" height="22" transform="matrix(1,0,0,1,0,0)" fill="none"/><path d=" M 593.167 193 C 591.793 193 590.667 194.127 590.667 195.5 L 590.667 210.5 C 590.667 211.873 591.793 213 593.167 213 L 604.833 213 C 606.207 213 607.333 211.873 607.333 210.5 L 607.333 195.5 C 607.333 194.127 606.207 193 604.833 193 L 593.167 193 Z  M 593.167 194.667 L 604.833 194.667 C 605.302 194.667 605.667 195.032 605.667 195.5 L 605.667 210.5 C 605.667 210.968 605.302 211.333 604.833 211.333 L 593.167 211.333 C 592.945 211.336 592.731 211.249 592.574 211.092 C 592.418 210.935 592.331 210.722 592.333 210.5 L 592.333 195.5 C 592.333 195.032 592.698 194.667 593.167 194.667 Z  M 594 198 L 594 199.667 L 604 199.667 L 604 198 L 594 198 Z  M 594 203 L 594 204.667 L 600.667 204.667 L 600.667 203 L 594 203 Z  M 602.333 203 L 602.333 204.667 L 604 204.667 L 604 203 L 602.333 203 Z  M 594 206.333 L 594 208 L 600.667 208 L 600.667 206.333 L 594 206.333 Z  M 602.333 206.333 L 602.333 208 L 604 208 L 604 206.333 L 602.333 206.333 Z " fill="rgb(96,125,139)"/></g></svg>